<svg width="367" height="83" viewBox="0 0 367 83" fill="none" xmlns="http://www.w3.org/2000/svg">
<path d="M25.7149 35.9683L35.9916 30.83L46.2682 35.9683V46.2449L35.9916 51.3833L25.7149 46.2449V35.9683ZM70.033 36.2091L54.7786 46.2449C53.7081 46.2449 52.8785 45.897 52.2897 45.2012C51.7009 44.5054 51.4066 43.649 51.4066 42.6321V32.1145L35.9916 23.1225L20.6569 32.1145V50.0987L56.2237 70.8929L40.8088 81.0892C39.4707 81.8386 37.8515 82.2132 35.9514 82.2132C34.0513 82.2132 32.4322 81.8386 31.0941 81.0892L2.03047 61.9008C0.531789 61.0444 -0.137264 60.0007 0.0233089 58.7696V23.4436C-0.137264 22.2126 0.531789 21.1956 2.03047 20.3927L31.0941 1.12401C32.4322 0.37467 34.0513 0 35.9514 0C37.8515 0 39.4707 0.37467 40.8088 1.12401L69.9527 20.3927C71.2908 21.1421 71.9331 22.052 71.8796 23.1225H71.9599V33.078C72.174 34.309 71.5317 35.3528 70.033 36.2091Z" fill="#1A324C"/>
<path d="M135.412 31.4167C133.469 31.4167 131.816 31.0964 130.452 30.4557C129.109 29.7944 128.065 28.8437 127.321 27.6037C126.577 26.343 126.164 24.8137 126.081 23.0157C126.06 22.1684 126.05 21.259 126.05 20.2877C126.05 19.3164 126.06 18.3864 126.081 17.4977C126.164 15.7204 126.577 14.2117 127.321 12.9717C128.086 11.711 129.15 10.75 130.514 10.0887C131.878 9.42735 133.511 9.09669 135.412 9.09669C136.797 9.09669 138.057 9.27236 139.194 9.62369C140.331 9.97502 141.312 10.4814 142.139 11.1427C142.966 11.804 143.606 12.579 144.061 13.4677C144.516 14.3564 144.764 15.3484 144.805 16.4437C144.805 16.6297 144.733 16.7847 144.588 16.9087C144.464 17.0327 144.309 17.0947 144.123 17.0947H140.589C140.341 17.0947 140.145 17.0327 140 16.9087C139.855 16.7847 139.742 16.578 139.659 16.2887C139.349 15.0694 138.832 14.2324 138.109 13.7777C137.386 13.323 136.487 13.0957 135.412 13.0957C134.131 13.0957 133.118 13.447 132.374 14.1497C131.63 14.8524 131.227 16.02 131.165 17.6527C131.103 19.3474 131.103 21.0834 131.165 22.8607C131.227 24.4934 131.63 25.661 132.374 26.3637C133.118 27.0664 134.131 27.4177 135.412 27.4177C136.487 27.4177 137.386 27.1904 138.109 26.7357C138.853 26.2604 139.37 25.4234 139.659 24.2247C139.742 23.9147 139.855 23.708 140 23.6047C140.145 23.4807 140.341 23.4187 140.589 23.4187H144.123C144.309 23.4187 144.464 23.4807 144.588 23.6047C144.733 23.7287 144.805 23.8837 144.805 24.0697C144.764 25.165 144.516 26.157 144.061 27.0457C143.606 27.9344 142.966 28.7094 142.139 29.3707C141.312 30.032 140.331 30.5384 139.194 30.8897C138.057 31.241 136.797 31.4167 135.412 31.4167ZM156.906 31.4167C155.025 31.4167 153.403 31.1067 152.039 30.4867C150.675 29.8667 149.611 28.9367 148.846 27.6967C148.081 26.436 147.668 24.855 147.606 22.9537C147.585 22.065 147.575 21.1867 147.575 20.3187C147.575 19.43 147.585 18.531 147.606 17.6217C147.668 15.7617 148.081 14.2014 148.846 12.9407C149.631 11.6594 150.706 10.6984 152.07 10.0577C153.455 9.41702 155.067 9.09669 156.906 9.09669C158.725 9.09669 160.316 9.41702 161.68 10.0577C163.065 10.6984 164.15 11.6594 164.935 12.9407C165.72 14.2014 166.134 15.7617 166.175 17.6217C166.216 18.531 166.237 19.43 166.237 20.3187C166.237 21.1867 166.216 22.065 166.175 22.9537C166.113 24.855 165.7 26.436 164.935 27.6967C164.17 28.9367 163.106 29.8667 161.742 30.4867C160.378 31.1067 158.766 31.4167 156.906 31.4167ZM156.906 27.4177C158.105 27.4177 159.086 27.056 159.851 26.3327C160.636 25.5887 161.05 24.4107 161.091 22.7987C161.132 21.8894 161.153 21.042 161.153 20.2567C161.153 19.4507 161.132 18.6034 161.091 17.7147C161.07 16.64 160.874 15.7617 160.502 15.0797C160.13 14.3977 159.634 13.9017 159.014 13.5917C158.415 13.261 157.712 13.0957 156.906 13.0957C156.1 13.0957 155.387 13.261 154.767 13.5917C154.147 13.9017 153.651 14.3977 153.279 15.0797C152.928 15.7617 152.731 16.64 152.69 17.7147C152.669 18.6034 152.659 19.4507 152.659 20.2567C152.659 21.042 152.669 21.8894 152.69 22.7987C152.752 24.4107 153.165 25.5887 153.93 26.3327C154.695 27.056 155.687 27.4177 156.906 27.4177ZM178.703 31.4167C176.822 31.4167 175.2 31.1067 173.836 30.4867C172.472 29.8667 171.408 28.9367 170.643 27.6967C169.878 26.436 169.465 24.855 169.403 22.9537C169.382 22.065 169.372 21.1867 169.372 20.3187C169.372 19.43 169.382 18.531 169.403 17.6217C169.465 15.7617 169.878 14.2014 170.643 12.9407C171.428 11.6594 172.503 10.6984 173.867 10.0577C175.252 9.41702 176.864 9.09669 178.703 9.09669C180.522 9.09669 182.113 9.41702 183.477 10.0577C184.862 10.6984 185.947 11.6594 186.732 12.9407C187.517 14.2014 187.931 15.7617 187.972 17.6217C188.013 18.531 188.034 19.43 188.034 20.3187C188.034 21.1867 188.013 22.065 187.972 22.9537C187.91 24.855 187.497 26.436 186.732 27.6967C185.967 28.9367 184.903 29.8667 183.539 30.4867C182.175 31.1067 180.563 31.4167 178.703 31.4167ZM178.703 27.4177C179.902 27.4177 180.883 27.056 181.648 26.3327C182.433 25.5887 182.847 24.4107 182.888 22.7987C182.929 21.8894 182.95 21.042 182.95 20.2567C182.95 19.4507 182.929 18.6034 182.888 17.7147C182.867 16.64 182.671 15.7617 182.299 15.0797C181.927 14.3977 181.431 13.9017 180.811 13.5917C180.212 13.261 179.509 13.0957 178.703 13.0957C177.897 13.0957 177.184 13.261 176.564 13.5917C175.944 13.9017 175.448 14.3977 175.076 15.0797C174.725 15.7617 174.528 16.64 174.487 17.7147C174.466 18.6034 174.456 19.4507 174.456 20.2567C174.456 21.042 174.466 21.8894 174.487 22.7987C174.549 24.4107 174.962 25.5887 175.727 26.3327C176.492 27.056 177.484 27.4177 178.703 27.4177ZM192.657 31.1067C192.43 31.1067 192.244 31.0344 192.099 30.8897C191.954 30.745 191.882 30.559 191.882 30.3317V10.1817C191.882 9.95435 191.954 9.76835 192.099 9.62369C192.244 9.47902 192.43 9.40669 192.657 9.40669H195.943C196.17 9.40669 196.356 9.47902 196.501 9.62369C196.646 9.76835 196.718 9.95435 196.718 10.1817V17.2497L203.104 9.99569C203.187 9.87169 203.321 9.74769 203.507 9.62369C203.714 9.47902 203.982 9.40669 204.313 9.40669H208.064C208.25 9.40669 208.405 9.47902 208.529 9.62369C208.653 9.74769 208.715 9.89236 208.715 10.0577C208.715 10.2024 208.674 10.3264 208.591 10.4297L200.624 19.7917L209.18 30.0837C209.263 30.1664 209.304 30.2904 209.304 30.4557C209.304 30.621 209.242 30.776 209.118 30.9207C208.994 31.0447 208.839 31.1067 208.653 31.1067H204.778C204.406 31.1067 204.127 31.024 203.941 30.8587C203.755 30.6934 203.631 30.5797 203.569 30.5177L196.718 22.5817V30.3317C196.718 30.559 196.646 30.745 196.501 30.8897C196.356 31.0344 196.17 31.1067 195.943 31.1067H192.657ZM212.728 31.1067C212.501 31.1067 212.315 31.0344 212.17 30.8897C212.026 30.745 211.953 30.559 211.953 30.3317V10.1817C211.953 9.95435 212.026 9.76835 212.17 9.62369C212.315 9.47902 212.501 9.40669 212.728 9.40669H216.231C216.459 9.40669 216.645 9.47902 216.789 9.62369C216.934 9.76835 217.006 9.95435 217.006 10.1817V30.3317C217.006 30.559 216.934 30.745 216.789 30.8897C216.645 31.0344 216.459 31.1067 216.231 31.1067H212.728ZM222.355 31.1067C222.128 31.1067 221.942 31.0344 221.797 30.8897C221.652 30.745 221.58 30.559 221.58 30.3317V10.1817C221.58 9.95435 221.652 9.76835 221.797 9.62369C221.942 9.47902 222.128 9.40669 222.355 9.40669H225.176C225.486 9.40669 225.713 9.47902 225.858 9.62369C226.003 9.76835 226.096 9.88202 226.137 9.96469L234.414 22.8917V10.1817C234.414 9.95435 234.486 9.76835 234.631 9.62369C234.776 9.47902 234.951 9.40669 235.158 9.40669H238.32C238.547 9.40669 238.733 9.47902 238.878 9.62369C239.023 9.76835 239.095 9.95435 239.095 10.1817V30.3317C239.095 30.5384 239.023 30.7244 238.878 30.8897C238.733 31.0344 238.547 31.1067 238.32 31.1067H235.468C235.158 31.1067 234.931 31.0344 234.786 30.8897C234.662 30.7244 234.569 30.6107 234.507 30.5487L226.261 18.0247V30.3317C226.261 30.559 226.189 30.745 226.044 30.8897C225.899 31.0344 225.713 31.1067 225.486 31.1067H222.355ZM252.391 31.4167C250.448 31.4167 248.784 31.0964 247.4 30.4557C246.036 29.7944 244.971 28.8437 244.207 27.6037C243.463 26.343 243.06 24.824 242.998 23.0467C242.977 22.158 242.967 21.2074 242.967 20.1947C242.967 19.182 242.977 18.221 242.998 17.3117C243.06 15.5757 243.463 14.098 244.207 12.8787C244.971 11.6594 246.046 10.7294 247.431 10.0887C248.836 9.42735 250.489 9.09669 252.391 9.09669C253.92 9.09669 255.263 9.29302 256.421 9.68569C257.578 10.0784 258.549 10.595 259.335 11.2357C260.12 11.8557 260.719 12.5377 261.133 13.2817C261.546 14.0257 261.763 14.7387 261.784 15.4207C261.784 15.6067 261.722 15.772 261.598 15.9167C261.474 16.0407 261.308 16.1027 261.102 16.1027H257.258C257.051 16.1027 256.886 16.0614 256.762 15.9787C256.658 15.896 256.565 15.772 256.483 15.6067C256.338 15.2347 256.1 14.8627 255.77 14.4907C255.46 14.098 255.036 13.7674 254.499 13.4987C253.961 13.23 253.259 13.0957 252.391 13.0957C251.089 13.0957 250.055 13.4367 249.291 14.1187C248.547 14.8007 248.144 15.9167 248.082 17.4667C248.02 19.244 248.02 21.0524 248.082 22.8917C248.144 24.5037 248.557 25.661 249.322 26.3637C250.107 27.0664 251.151 27.4177 252.453 27.4177C253.3 27.4177 254.054 27.273 254.716 26.9837C255.398 26.6737 255.935 26.1984 256.328 25.5577C256.72 24.917 256.917 24.1007 256.917 23.1087V22.3337H253.538C253.331 22.3337 253.155 22.2614 253.011 22.1167C252.866 21.9514 252.794 21.7654 252.794 21.5587V19.5747C252.794 19.3474 252.866 19.1614 253.011 19.0167C253.155 18.872 253.331 18.7997 253.538 18.7997H261.133C261.36 18.7997 261.546 18.872 261.691 19.0167C261.835 19.1614 261.908 19.3474 261.908 19.5747V22.9537C261.908 24.731 261.515 26.25 260.73 27.5107C259.965 28.7714 258.859 29.7427 257.413 30.4247C255.987 31.086 254.313 31.4167 252.391 31.4167ZM273.305 31.1067C273.078 31.1067 272.892 31.0344 272.747 30.8897C272.603 30.745 272.53 30.559 272.53 30.3317V10.1817C272.53 9.95435 272.603 9.76835 272.747 9.62369C272.892 9.47902 273.078 9.40669 273.305 9.40669H282.512C284.228 9.40669 285.633 9.65469 286.728 10.1507C287.824 10.6467 288.63 11.3494 289.146 12.2587C289.684 13.168 289.952 14.2324 289.952 15.4517C289.952 16.2164 289.808 16.888 289.518 17.4667C289.25 18.0454 288.909 18.5207 288.495 18.8927C288.103 19.2647 287.72 19.5437 287.348 19.7297C288.154 20.1017 288.857 20.7217 289.456 21.5897C290.076 22.437 290.386 23.4497 290.386 24.6277C290.386 25.9297 290.097 27.0664 289.518 28.0377C288.94 29.009 288.082 29.7634 286.945 30.3007C285.809 30.838 284.424 31.1067 282.791 31.1067H273.305ZM277.459 27.4797H282.202C283.215 27.4797 283.98 27.2007 284.496 26.6427C285.013 26.064 285.271 25.382 285.271 24.5967C285.271 23.7907 285.003 23.119 284.465 22.5817C283.949 22.0237 283.194 21.7447 282.202 21.7447H277.459V27.4797ZM277.459 18.1797H281.923C282.895 18.1797 283.618 17.942 284.093 17.4667C284.589 16.9707 284.837 16.3404 284.837 15.5757C284.837 14.811 284.589 14.2014 284.093 13.7467C283.618 13.2714 282.895 13.0337 281.923 13.0337H277.459V18.1797ZM294.86 31.1067C294.633 31.1067 294.447 31.0344 294.302 30.8897C294.157 30.745 294.085 30.559 294.085 30.3317V10.1817C294.085 9.95435 294.157 9.76835 294.302 9.62369C294.447 9.47902 294.633 9.40669 294.86 9.40669H298.301C298.528 9.40669 298.714 9.47902 298.859 9.62369C299.004 9.76835 299.076 9.95435 299.076 10.1817V26.9527H308.686C308.913 26.9527 309.099 27.025 309.244 27.1697C309.389 27.3144 309.461 27.5004 309.461 27.7277V30.3317C309.461 30.559 309.389 30.745 309.244 30.8897C309.099 31.0344 308.913 31.1067 308.686 31.1067H294.86ZM320.655 31.4167C318.774 31.4167 317.152 31.1067 315.788 30.4867C314.424 29.8667 313.36 28.9367 312.595 27.6967C311.83 26.436 311.417 24.855 311.355 22.9537C311.334 22.065 311.324 21.1867 311.324 20.3187C311.324 19.43 311.334 18.531 311.355 17.6217C311.417 15.7617 311.83 14.2014 312.595 12.9407C313.38 11.6594 314.455 10.6984 315.819 10.0577C317.204 9.41702 318.816 9.09669 320.655 9.09669C322.474 9.09669 324.065 9.41702 325.429 10.0577C326.814 10.6984 327.899 11.6594 328.684 12.9407C329.469 14.2014 329.883 15.7617 329.924 17.6217C329.965 18.531 329.986 19.43 329.986 20.3187C329.986 21.1867 329.965 22.065 329.924 22.9537C329.862 24.855 329.449 26.436 328.684 27.6967C327.919 28.9367 326.855 29.8667 325.491 30.4867C324.127 31.1067 322.515 31.4167 320.655 31.4167ZM320.655 27.4177C321.854 27.4177 322.835 27.056 323.6 26.3327C324.385 25.5887 324.799 24.4107 324.84 22.7987C324.881 21.8894 324.902 21.042 324.902 20.2567C324.902 19.4507 324.881 18.6034 324.84 17.7147C324.819 16.64 324.623 15.7617 324.251 15.0797C323.879 14.3977 323.383 13.9017 322.763 13.5917C322.164 13.261 321.461 13.0957 320.655 13.0957C319.849 13.0957 319.136 13.261 318.516 13.5917C317.896 13.9017 317.4 14.3977 317.028 15.0797C316.677 15.7617 316.48 16.64 316.439 17.7147C316.418 18.6034 316.408 19.4507 316.408 20.2567C316.408 21.042 316.418 21.8894 316.439 22.7987C316.501 24.4107 316.914 25.5887 317.679 26.3327C318.444 27.056 319.436 27.4177 320.655 27.4177ZM342.545 31.4167C340.602 31.4167 338.939 31.0964 337.554 30.4557C336.19 29.7944 335.126 28.8437 334.361 27.6037C333.617 26.343 333.214 24.824 333.152 23.0467C333.131 22.158 333.121 21.2074 333.121 20.1947C333.121 19.182 333.131 18.221 333.152 17.3117C333.214 15.5757 333.617 14.098 334.361 12.8787C335.126 11.6594 336.2 10.7294 337.585 10.0887C338.99 9.42735 340.644 9.09669 342.545 9.09669C344.074 9.09669 345.418 9.29302 346.575 9.68569C347.732 10.0784 348.704 10.595 349.489 11.2357C350.274 11.8557 350.874 12.5377 351.287 13.2817C351.7 14.0257 351.917 14.7387 351.938 15.4207C351.938 15.6067 351.876 15.772 351.752 15.9167C351.628 16.0407 351.463 16.1027 351.256 16.1027H347.412C347.205 16.1027 347.04 16.0614 346.916 15.9787C346.813 15.896 346.72 15.772 346.637 15.6067C346.492 15.2347 346.255 14.8627 345.924 14.4907C345.614 14.098 345.19 13.7674 344.653 13.4987C344.116 13.23 343.413 13.0957 342.545 13.0957C341.243 13.0957 340.21 13.4367 339.445 14.1187C338.701 14.8007 338.298 15.9167 338.236 17.4667C338.174 19.244 338.174 21.0524 338.236 22.8917C338.298 24.5037 338.711 25.661 339.476 26.3637C340.261 27.0664 341.305 27.4177 342.607 27.4177C343.454 27.4177 344.209 27.273 344.87 26.9837C345.552 26.6737 346.089 26.1984 346.482 25.5577C346.875 24.917 347.071 24.1007 347.071 23.1087V22.3337H343.692C343.485 22.3337 343.31 22.2614 343.165 22.1167C343.02 21.9514 342.948 21.7654 342.948 21.5587V19.5747C342.948 19.3474 343.02 19.1614 343.165 19.0167C343.31 18.872 343.485 18.7997 343.692 18.7997H351.287C351.514 18.7997 351.7 18.872 351.845 19.0167C351.99 19.1614 352.062 19.3474 352.062 19.5747V22.9537C352.062 24.731 351.669 26.25 350.884 27.5107C350.119 28.7714 349.014 29.7427 347.567 30.4247C346.141 31.086 344.467 31.4167 342.545 31.4167Z" fill="#1A324C"/>
<path d="M115.41 72.1067C115.203 72.1067 115.028 72.0447 114.883 71.9207C114.759 71.776 114.697 71.6004 114.697 71.3937V51.1507C114.697 50.9234 114.759 50.7477 114.883 50.6237C115.028 50.479 115.203 50.4067 115.41 50.4067H116.96C117.208 50.4067 117.394 50.4687 117.518 50.5927C117.642 50.7167 117.714 50.82 117.735 50.9027L124.307 63.4267L130.91 50.9027C130.951 50.82 131.024 50.7167 131.127 50.5927C131.251 50.4687 131.437 50.4067 131.685 50.4067H133.204C133.431 50.4067 133.607 50.479 133.731 50.6237C133.876 50.7477 133.948 50.9234 133.948 51.1507V71.3937C133.948 71.6004 133.876 71.776 133.731 71.9207C133.607 72.0447 133.431 72.1067 133.204 72.1067H131.685C131.478 72.1067 131.303 72.0447 131.158 71.9207C131.034 71.776 130.972 71.6004 130.972 71.3937V56.1417L125.795 66.2477C125.712 66.4544 125.588 66.6197 125.423 66.7437C125.258 66.847 125.051 66.8987 124.803 66.8987H123.842C123.573 66.8987 123.356 66.847 123.191 66.7437C123.046 66.6197 122.922 66.4544 122.819 66.2477L117.642 56.1417V71.3937C117.642 71.6004 117.57 71.776 117.425 71.9207C117.301 72.0447 117.136 72.1067 116.929 72.1067H115.41ZM143.401 72.4167C142.368 72.4167 141.428 72.21 140.58 71.7967C139.733 71.3834 139.051 70.8254 138.534 70.1227C138.018 69.42 137.759 68.6244 137.759 67.7357C137.759 66.3097 138.338 65.173 139.495 64.3257C140.653 63.4784 142.161 62.9204 144.021 62.6517L148.64 62.0007V61.1017C148.64 60.1097 148.351 59.3347 147.772 58.7767C147.214 58.2187 146.295 57.9397 145.013 57.9397C144.083 57.9397 143.329 58.1257 142.75 58.4977C142.192 58.8697 141.8 59.345 141.572 59.9237C141.448 60.2337 141.231 60.3887 140.921 60.3887H139.526C139.299 60.3887 139.123 60.3267 138.999 60.2027C138.896 60.058 138.844 59.8927 138.844 59.7067C138.844 59.3967 138.958 59.0144 139.185 58.5597C139.433 58.105 139.805 57.6607 140.301 57.2267C140.797 56.7927 141.428 56.431 142.192 56.1417C142.978 55.8317 143.928 55.6767 145.044 55.6767C146.284 55.6767 147.328 55.842 148.175 56.1727C149.023 56.4827 149.684 56.9064 150.159 57.4437C150.655 57.981 151.007 58.5907 151.213 59.2727C151.441 59.9547 151.554 60.647 151.554 61.3497V71.3937C151.554 71.6004 151.482 71.776 151.337 71.9207C151.213 72.0447 151.048 72.1067 150.841 72.1067H149.415C149.188 72.1067 149.012 72.0447 148.888 71.9207C148.764 71.776 148.702 71.6004 148.702 71.3937V70.0607C148.434 70.4327 148.072 70.8047 147.617 71.1767C147.163 71.528 146.594 71.8277 145.912 72.0757C145.23 72.303 144.393 72.4167 143.401 72.4167ZM144.052 70.0917C144.9 70.0917 145.675 69.916 146.377 69.5647C147.08 69.1927 147.628 68.6244 148.02 67.8597C148.434 67.095 148.64 66.134 148.64 64.9767V64.1087L145.044 64.6357C143.577 64.8424 142.471 65.1937 141.727 65.6897C140.983 66.165 140.611 66.7747 140.611 67.5187C140.611 68.0974 140.777 68.583 141.107 68.9757C141.459 69.3477 141.893 69.6267 142.409 69.8127C142.947 69.9987 143.494 70.0917 144.052 70.0917ZM161.901 72.4167C160.764 72.4167 159.782 72.2204 158.956 71.8277C158.129 71.4144 157.447 70.8667 156.91 70.1847C156.393 69.482 156 68.6864 155.732 67.7977C155.484 66.909 155.339 65.9687 155.298 64.9767C155.277 64.646 155.267 64.336 155.267 64.0467C155.267 63.7574 155.277 63.4474 155.298 63.1167C155.339 62.1454 155.484 61.2154 155.732 60.3267C156 59.438 156.393 58.6424 156.91 57.9397C157.447 57.237 158.129 56.6894 158.956 56.2967C159.782 55.8834 160.764 55.6767 161.901 55.6767C163.12 55.6767 164.133 55.8937 164.939 56.3277C165.745 56.7617 166.406 57.299 166.923 57.9397V50.8097C166.923 50.603 166.985 50.4377 167.109 50.3137C167.253 50.169 167.429 50.0967 167.636 50.0967H169.124C169.33 50.0967 169.496 50.169 169.62 50.3137C169.764 50.4377 169.837 50.603 169.837 50.8097V71.3937C169.837 71.6004 169.764 71.776 169.62 71.9207C169.496 72.0447 169.33 72.1067 169.124 72.1067H167.729C167.501 72.1067 167.326 72.0447 167.202 71.9207C167.078 71.776 167.016 71.6004 167.016 71.3937V70.0917C166.499 70.753 165.827 71.311 165.001 71.7657C164.174 72.1997 163.141 72.4167 161.901 72.4167ZM162.552 69.9057C163.585 69.9057 164.412 69.668 165.032 69.1927C165.652 68.7174 166.117 68.118 166.427 67.3947C166.737 66.6507 166.902 65.8964 166.923 65.1317C166.943 64.801 166.954 64.4084 166.954 63.9537C166.954 63.4784 166.943 63.0754 166.923 62.7447C166.902 62.0214 166.726 61.3084 166.396 60.6057C166.086 59.903 165.61 59.3244 164.97 58.8697C164.35 58.415 163.544 58.1877 162.552 58.1877C161.498 58.1877 160.661 58.4254 160.041 58.9007C159.421 59.3554 158.976 59.965 158.708 60.7297C158.439 61.4737 158.284 62.2797 158.243 63.1477C158.222 63.747 158.222 64.3464 158.243 64.9457C158.284 65.8137 158.439 66.63 158.708 67.3947C158.976 68.1387 159.421 68.7484 160.041 69.2237C160.661 69.6784 161.498 69.9057 162.552 69.9057ZM180.864 72.4167C178.736 72.4167 177.041 71.7657 175.78 70.4637C174.52 69.141 173.827 67.343 173.703 65.0697C173.683 64.801 173.672 64.46 173.672 64.0467C173.672 63.6127 173.683 63.2614 173.703 62.9927C173.786 61.5254 174.127 60.244 174.726 59.1487C175.326 58.0327 176.142 57.175 177.175 56.5757C178.229 55.9764 179.459 55.6767 180.864 55.6767C182.435 55.6767 183.747 56.0074 184.801 56.6687C185.876 57.33 186.692 58.2704 187.25 59.4897C187.808 60.709 188.087 62.135 188.087 63.7677V64.2947C188.087 64.522 188.015 64.6977 187.87 64.8217C187.746 64.9457 187.581 65.0077 187.374 65.0077H176.648C176.648 65.0284 176.648 65.0697 176.648 65.1317C176.648 65.1937 176.648 65.2454 176.648 65.2867C176.69 66.134 176.876 66.9297 177.206 67.6737C177.537 68.397 178.012 68.986 178.632 69.4407C179.252 69.8954 179.996 70.1227 180.864 70.1227C181.608 70.1227 182.228 70.009 182.724 69.7817C183.22 69.5544 183.623 69.3064 183.933 69.0377C184.243 68.7484 184.45 68.5314 184.553 68.3867C184.739 68.118 184.884 67.963 184.987 67.9217C185.091 67.8597 185.256 67.8287 185.483 67.8287H186.971C187.178 67.8287 187.343 67.8907 187.467 68.0147C187.612 68.118 187.674 68.273 187.653 68.4797C187.633 68.7897 187.467 69.172 187.157 69.6267C186.847 70.0607 186.403 70.4947 185.824 70.9287C185.246 71.3627 184.543 71.7244 183.716 72.0137C182.89 72.2824 181.939 72.4167 180.864 72.4167ZM176.648 62.8687H185.142V62.7757C185.142 61.8457 184.967 61.019 184.615 60.2957C184.285 59.5724 183.799 59.004 183.158 58.5907C182.518 58.1567 181.753 57.9397 180.864 57.9397C179.976 57.9397 179.211 58.1567 178.57 58.5907C177.95 59.004 177.475 59.5724 177.144 60.2957C176.814 61.019 176.648 61.8457 176.648 62.7757V62.8687ZM202.944 72.1067C202.675 72.1067 202.469 72.0447 202.324 71.9207C202.179 71.776 202.055 71.5797 201.952 71.3317L197.55 56.9477C197.509 56.8444 197.488 56.741 197.488 56.6377C197.488 56.4517 197.55 56.2967 197.674 56.1727C197.819 56.0487 197.974 55.9867 198.139 55.9867H199.503C199.73 55.9867 199.906 56.0487 200.03 56.1727C200.154 56.2967 200.237 56.4104 200.278 56.5137L203.719 68.2007L207.408 56.6377C207.449 56.493 207.532 56.3484 207.656 56.2037C207.801 56.059 208.007 55.9867 208.276 55.9867H209.33C209.599 55.9867 209.805 56.059 209.95 56.2037C210.095 56.3484 210.177 56.493 210.198 56.6377L213.887 68.2007L217.328 56.5137C217.349 56.4104 217.421 56.2967 217.545 56.1727C217.669 56.0487 217.845 55.9867 218.072 55.9867H219.436C219.622 55.9867 219.777 56.0487 219.901 56.1727C220.025 56.2967 220.087 56.4517 220.087 56.6377C220.087 56.741 220.066 56.8444 220.025 56.9477L215.623 71.3317C215.561 71.5797 215.447 71.776 215.282 71.9207C215.137 72.0447 214.92 72.1067 214.631 72.1067H213.422C213.153 72.1067 212.926 72.0447 212.74 71.9207C212.575 71.776 212.461 71.5797 212.399 71.3317L208.803 60.2337L205.207 71.3317C205.124 71.5797 205 71.776 204.835 71.9207C204.67 72.0447 204.442 72.1067 204.153 72.1067H202.944ZM224.234 72.1067C224.027 72.1067 223.851 72.0447 223.707 71.9207C223.583 71.776 223.521 71.6004 223.521 71.3937V56.6997C223.521 56.493 223.583 56.3277 223.707 56.2037C223.851 56.059 224.027 55.9867 224.234 55.9867H225.722C225.928 55.9867 226.094 56.059 226.218 56.2037C226.342 56.3277 226.404 56.493 226.404 56.6997V71.3937C226.404 71.6004 226.342 71.776 226.218 71.9207C226.094 72.0447 225.928 72.1067 225.722 72.1067H224.234ZM223.986 52.9797C223.779 52.9797 223.603 52.9177 223.459 52.7937C223.335 52.649 223.273 52.4734 223.273 52.2667V50.5927C223.273 50.386 223.335 50.2207 223.459 50.0967C223.603 49.952 223.779 49.8797 223.986 49.8797H225.939C226.145 49.8797 226.311 49.952 226.435 50.0967C226.579 50.2207 226.652 50.386 226.652 50.5927V52.2667C226.652 52.4734 226.579 52.649 226.435 52.7937C226.311 52.9177 226.145 52.9797 225.939 52.9797H223.986ZM237.321 72.1067C236.164 72.1067 235.224 71.8897 234.5 71.4557C233.777 71.001 233.25 70.3707 232.919 69.5647C232.589 68.738 232.423 67.7667 232.423 66.6507V58.4667H230.005C229.799 58.4667 229.623 58.4047 229.478 58.2807C229.354 58.136 229.292 57.9604 229.292 57.7537V56.6997C229.292 56.493 229.354 56.3277 229.478 56.2037C229.623 56.059 229.799 55.9867 230.005 55.9867H232.423V50.8097C232.423 50.603 232.485 50.4377 232.609 50.3137C232.754 50.169 232.93 50.0967 233.136 50.0967H234.593C234.8 50.0967 234.965 50.169 235.089 50.3137C235.234 50.4377 235.306 50.603 235.306 50.8097V55.9867H239.15C239.357 55.9867 239.522 56.059 239.646 56.2037C239.791 56.3277 239.863 56.493 239.863 56.6997V57.7537C239.863 57.9604 239.791 58.136 239.646 58.2807C239.522 58.4047 239.357 58.4667 239.15 58.4667H235.306V66.4337C235.306 67.405 235.472 68.1697 235.802 68.7277C236.133 69.2857 236.722 69.5647 237.569 69.5647H239.46C239.667 69.5647 239.832 69.637 239.956 69.7817C240.101 69.9057 240.173 70.071 240.173 70.2777V71.3937C240.173 71.6004 240.101 71.776 239.956 71.9207C239.832 72.0447 239.667 72.1067 239.46 72.1067H237.321ZM243.882 72.1067C243.675 72.1067 243.499 72.0447 243.355 71.9207C243.231 71.776 243.169 71.6004 243.169 71.3937V50.8097C243.169 50.603 243.231 50.4377 243.355 50.3137C243.499 50.169 243.675 50.0967 243.882 50.0967H245.432C245.659 50.0967 245.835 50.169 245.959 50.3137C246.083 50.4377 246.145 50.603 246.145 50.8097V58.0327C246.703 57.33 247.385 56.7617 248.191 56.3277C248.997 55.8937 250.02 55.6767 251.26 55.6767C252.603 55.6767 253.74 55.9764 254.67 56.5757C255.62 57.1544 256.333 57.9707 256.809 59.0247C257.305 60.058 257.553 61.267 257.553 62.6517V71.3937C257.553 71.6004 257.491 71.776 257.367 71.9207C257.243 72.0447 257.067 72.1067 256.84 72.1067H255.29C255.083 72.1067 254.907 72.0447 254.763 71.9207C254.639 71.776 254.577 71.6004 254.577 71.3937V62.8067C254.577 61.36 254.225 60.2337 253.523 59.4277C252.82 58.601 251.787 58.1877 250.423 58.1877C249.141 58.1877 248.108 58.601 247.323 59.4277C246.537 60.2337 246.145 61.36 246.145 62.8067V71.3937C246.145 71.6004 246.083 71.776 245.959 71.9207C245.835 72.0447 245.659 72.1067 245.432 72.1067H243.882ZM270.743 72.1067C270.516 72.1067 270.34 72.0447 270.216 71.9207C270.092 71.776 270.03 71.6004 270.03 71.3937V51.1507C270.03 50.9234 270.092 50.7477 270.216 50.6237C270.34 50.479 270.516 50.4067 270.743 50.4067H272.169C272.417 50.4067 272.603 50.4687 272.727 50.5927C272.851 50.696 272.923 50.7787 272.944 50.8407L283.236 66.6507V51.1507C283.236 50.9234 283.298 50.7477 283.422 50.6237C283.546 50.479 283.722 50.4067 283.949 50.4067H285.437C285.664 50.4067 285.84 50.479 285.964 50.6237C286.109 50.7477 286.181 50.9234 286.181 51.1507V71.3627C286.181 71.5694 286.109 71.745 285.964 71.8897C285.84 72.0344 285.675 72.1067 285.468 72.1067H283.98C283.753 72.1067 283.577 72.0447 283.453 71.9207C283.35 71.7967 283.277 71.714 283.236 71.6727L272.975 56.0177V71.3937C272.975 71.6004 272.903 71.776 272.758 71.9207C272.634 72.0447 272.458 72.1067 272.231 72.1067H270.743ZM297.754 72.4167C296.184 72.4167 294.871 72.117 293.817 71.5177C292.763 70.9184 291.957 70.0917 291.399 69.0377C290.841 67.963 290.531 66.7437 290.469 65.3797C290.449 65.0284 290.438 64.584 290.438 64.0467C290.438 63.4887 290.449 63.0444 290.469 62.7137C290.531 61.329 290.841 60.1097 291.399 59.0557C291.978 58.0017 292.794 57.175 293.848 56.5757C294.902 55.9764 296.204 55.6767 297.754 55.6767C299.304 55.6767 300.606 55.9764 301.66 56.5757C302.714 57.175 303.52 58.0017 304.078 59.0557C304.657 60.1097 304.977 61.329 305.039 62.7137C305.06 63.0444 305.07 63.4887 305.07 64.0467C305.07 64.584 305.06 65.0284 305.039 65.3797C304.977 66.7437 304.667 67.963 304.109 69.0377C303.551 70.0917 302.745 70.9184 301.691 71.5177C300.637 72.117 299.325 72.4167 297.754 72.4167ZM297.754 70.0297C299.036 70.0297 300.059 69.6267 300.823 68.8207C301.588 67.994 302.001 66.7954 302.063 65.2247C302.084 64.9147 302.094 64.522 302.094 64.0467C302.094 63.5714 302.084 63.1787 302.063 62.8687C302.001 61.298 301.588 60.1097 300.823 59.3037C300.059 58.477 299.036 58.0637 297.754 58.0637C296.473 58.0637 295.44 58.477 294.654 59.3037C293.89 60.1097 293.487 61.298 293.445 62.8687C293.425 63.1787 293.414 63.5714 293.414 64.0467C293.414 64.522 293.425 64.9147 293.445 65.2247C293.487 66.7954 293.89 67.994 294.654 68.8207C295.44 69.6267 296.473 70.0297 297.754 70.0297ZM314.842 72.4167C313.706 72.4167 312.724 72.2204 311.897 71.8277C311.071 71.4144 310.389 70.8667 309.851 70.1847C309.335 69.482 308.942 68.6864 308.673 67.7977C308.425 66.909 308.281 65.9687 308.239 64.9767C308.219 64.646 308.208 64.336 308.208 64.0467C308.208 63.7574 308.219 63.4474 308.239 63.1167C308.281 62.1454 308.425 61.2154 308.673 60.3267C308.942 59.438 309.335 58.6424 309.851 57.9397C310.389 57.237 311.071 56.6894 311.897 56.2967C312.724 55.8834 313.706 55.6767 314.842 55.6767C316.062 55.6767 317.074 55.8937 317.88 56.3277C318.686 56.7617 319.348 57.299 319.864 57.9397V50.8097C319.864 50.603 319.926 50.4377 320.05 50.3137C320.195 50.169 320.371 50.0967 320.577 50.0967H322.065C322.272 50.0967 322.437 50.169 322.561 50.3137C322.706 50.4377 322.778 50.603 322.778 50.8097V71.3937C322.778 71.6004 322.706 71.776 322.561 71.9207C322.437 72.0447 322.272 72.1067 322.065 72.1067H320.67C320.443 72.1067 320.267 72.0447 320.143 71.9207C320.019 71.776 319.957 71.6004 319.957 71.3937V70.0917C319.441 70.753 318.769 71.311 317.942 71.7657C317.116 72.1997 316.082 72.4167 314.842 72.4167ZM315.493 69.9057C316.527 69.9057 317.353 69.668 317.973 69.1927C318.593 68.7174 319.058 68.118 319.368 67.3947C319.678 66.6507 319.844 65.8964 319.864 65.1317C319.885 64.801 319.895 64.4084 319.895 63.9537C319.895 63.4784 319.885 63.0754 319.864 62.7447C319.844 62.0214 319.668 61.3084 319.337 60.6057C319.027 59.903 318.552 59.3244 317.911 58.8697C317.291 58.415 316.485 58.1877 315.493 58.1877C314.439 58.1877 313.602 58.4254 312.982 58.9007C312.362 59.3554 311.918 59.965 311.649 60.7297C311.381 61.4737 311.226 62.2797 311.184 63.1477C311.164 63.747 311.164 64.3464 311.184 64.9457C311.226 65.8137 311.381 66.63 311.649 67.3947C311.918 68.1387 312.362 68.7484 312.982 69.2237C313.602 69.6784 314.439 69.9057 315.493 69.9057ZM333.806 72.4167C331.677 72.4167 329.982 71.7657 328.722 70.4637C327.461 69.141 326.769 67.343 326.645 65.0697C326.624 64.801 326.614 64.46 326.614 64.0467C326.614 63.6127 326.624 63.2614 326.645 62.9927C326.727 61.5254 327.068 60.244 327.668 59.1487C328.267 58.0327 329.083 57.175 330.117 56.5757C331.171 55.9764 332.4 55.6767 333.806 55.6767C335.376 55.6767 336.689 56.0074 337.743 56.6687C338.817 57.33 339.634 58.2704 340.192 59.4897C340.75 60.709 341.029 62.135 341.029 63.7677V64.2947C341.029 64.522 340.956 64.6977 340.812 64.8217C340.688 64.9457 340.522 65.0077 340.316 65.0077H329.59C329.59 65.0284 329.59 65.0697 329.59 65.1317C329.59 65.1937 329.59 65.2454 329.59 65.2867C329.631 66.134 329.817 66.9297 330.148 67.6737C330.478 68.397 330.954 68.986 331.574 69.4407C332.194 69.8954 332.938 70.1227 333.806 70.1227C334.55 70.1227 335.17 70.009 335.666 69.7817C336.162 69.5544 336.565 69.3064 336.875 69.0377C337.185 68.7484 337.391 68.5314 337.495 68.3867C337.681 68.118 337.825 67.963 337.929 67.9217C338.032 67.8597 338.197 67.8287 338.425 67.8287H339.913C340.119 67.8287 340.285 67.8907 340.409 68.0147C340.553 68.118 340.615 68.273 340.595 68.4797C340.574 68.7897 340.409 69.172 340.099 69.6267C339.789 70.0607 339.344 70.4947 338.766 70.9287C338.187 71.3627 337.484 71.7244 336.658 72.0137C335.831 72.2824 334.88 72.4167 333.806 72.4167ZM329.59 62.8687H338.084V62.7757C338.084 61.8457 337.908 61.019 337.557 60.2957C337.226 59.5724 336.74 59.004 336.1 58.5907C335.459 58.1567 334.694 57.9397 333.806 57.9397C332.917 57.9397 332.152 58.1567 331.512 58.5907C330.892 59.004 330.416 59.5724 330.086 60.2957C329.755 61.019 329.59 61.8457 329.59 62.7757V62.8687ZM342.1 77.9967C341.894 77.9967 341.728 77.9244 341.604 77.7797C341.46 77.6557 341.387 77.4904 341.387 77.2837V76.2297C341.387 76.023 341.46 75.8474 341.604 75.7027C341.728 75.5787 341.894 75.5167 342.1 75.5167H342.534C343.278 75.5167 343.826 75.372 344.177 75.0827C344.529 74.814 344.756 74.4524 344.859 73.9977C344.983 73.543 345.045 73.0264 345.045 72.4477V56.6997C345.045 56.493 345.107 56.3277 345.231 56.2037C345.376 56.059 345.552 55.9867 345.758 55.9867H347.277C347.484 55.9867 347.649 56.059 347.773 56.2037C347.918 56.3277 347.99 56.493 347.99 56.6997V72.4787C347.99 73.574 347.815 74.535 347.463 75.3617C347.133 76.1884 346.585 76.829 345.82 77.2837C345.056 77.759 344.012 77.9967 342.689 77.9967H342.1ZM345.51 52.9797C345.304 52.9797 345.128 52.9177 344.983 52.7937C344.859 52.649 344.797 52.4734 344.797 52.2667V50.5927C344.797 50.386 344.859 50.2207 344.983 50.0967C345.128 49.952 345.304 49.8797 345.51 49.8797H347.494C347.701 49.8797 347.877 49.952 348.021 50.0967C348.166 50.2207 348.238 50.386 348.238 50.5927V52.2667C348.238 52.4734 348.166 52.649 348.021 52.7937C347.877 52.9177 347.701 52.9797 347.494 52.9797H345.51ZM358.368 72.4167C357.211 72.4167 356.219 72.272 355.392 71.9827C354.565 71.6934 353.894 71.342 353.377 70.9287C352.86 70.5154 352.468 70.102 352.199 69.6887C351.951 69.2754 351.817 68.9447 351.796 68.6967C351.775 68.4694 351.848 68.2937 352.013 68.1697C352.178 68.0457 352.344 67.9837 352.509 67.9837H353.873C353.997 67.9837 354.09 68.0044 354.152 68.0457C354.235 68.0664 354.338 68.149 354.462 68.2937C354.731 68.583 355.03 68.8724 355.361 69.1617C355.692 69.451 356.095 69.6887 356.57 69.8747C357.066 70.0607 357.676 70.1537 358.399 70.1537C359.453 70.1537 360.321 69.9574 361.003 69.5647C361.685 69.1514 362.026 68.552 362.026 67.7667C362.026 67.25 361.881 66.8367 361.592 66.5267C361.323 66.2167 360.827 65.9377 360.104 65.6897C359.401 65.4417 358.43 65.1834 357.19 64.9147C355.95 64.6254 354.968 64.274 354.245 63.8607C353.522 63.4267 353.005 62.9204 352.695 62.3417C352.385 61.7424 352.23 61.0707 352.23 60.3267C352.23 59.562 352.457 58.8284 352.912 58.1257C353.367 57.4024 354.028 56.8134 354.896 56.3587C355.785 55.904 356.89 55.6767 358.213 55.6767C359.288 55.6767 360.207 55.811 360.972 56.0797C361.737 56.3484 362.367 56.6894 362.863 57.1027C363.359 57.4954 363.731 57.888 363.979 58.2807C364.227 58.6734 364.361 59.004 364.382 59.2727C364.403 59.4794 364.341 59.655 364.196 59.7997C364.051 59.9237 363.886 59.9857 363.7 59.9857H362.398C362.253 59.9857 362.129 59.9547 362.026 59.8927C361.943 59.8307 361.861 59.7584 361.778 59.6757C361.571 59.407 361.323 59.1384 361.034 58.8697C360.765 58.601 360.404 58.384 359.949 58.2187C359.515 58.0327 358.936 57.9397 358.213 57.9397C357.18 57.9397 356.405 58.1567 355.888 58.5907C355.371 59.0247 355.113 59.5724 355.113 60.2337C355.113 60.6264 355.227 60.9777 355.454 61.2877C355.681 61.5977 356.115 61.8767 356.756 62.1247C357.397 62.3727 358.347 62.6414 359.608 62.9307C360.972 63.1994 362.047 63.561 362.832 64.0157C363.617 64.4704 364.175 64.9974 364.506 65.5967C364.837 66.196 365.002 66.8884 365.002 67.6737C365.002 68.5417 364.744 69.3374 364.227 70.0607C363.731 70.784 362.987 71.3627 361.995 71.7967C361.024 72.21 359.815 72.4167 358.368 72.4167Z" fill="#1A324C"/>
</svg>
